<?xml version="1.0" encoding="UTF-8" standalone="no"?>
<!-- Created with Serif DrawPlus 12,0,4,27 (May 24, 08:37:51) (http://www.serif.com) -->
<svg version="1.1" xmlns="http://www.w3.org/2000/svg" xmlns:xlink="http://www.w3.org/1999/xlink" width="816" height="1056">
	<g id="Layer_1">
		<path id="dp_path001" transform="matrix(1,0,0,1,8.604,1005.74)" fill="white" stroke="black" stroke-width="13.3333" d="M 575.761,-412.421 C 555.032,-396.032 516.828,-364.341 461.26,-317.239 L 358.155,-223.576 L 736.171,-223.576 L 737.365,0 L 48.296,0 L 49.4907,-135.123 C 85.1973,-175.821 141.96,-234.103 220.103,-309.967 C 297.485,-384.636 354.031,-442.919 389.629,-484.812 C 450.299,-555.032 482.532,-611.143 486.113,-652.927 L 489.912,-700.029 C 489.912,-705.131 489.912,-710.34 489.912,-715.659 C 490.781,-750.497 480.361,-781.863 458.764,-809.647 C 434.344,-840.036 401.241,-855.231 359.457,-855.231 C 312.572,-855.231 275.671,-836.129 248.755,-797.817 C 225.42,-764.715 213.808,-723.364 213.808,-673.873 C 213.808,-625.903 224.661,-574.024 246.259,-518.348 L 79.4453,-557.528 C 66.3133,-593.127 59.692,-632.197 59.692,-674.851 C 59.692,-763.304 93.6627,-833.524 161.495,-885.403 C 223.249,-933.265 299.656,-957.251 390.932,-957.251 C 486.331,-957.251 566.753,-937.607 632.089,-898.427 C 710.124,-851.54 749.195,-783.383 749.195,-693.844 C 749.195,-601.809 691.348,-508.037 575.761,-412.421 Z "/>
	</g>
</svg>