<?xml version="1.0" encoding="UTF-8" standalone="no"?>
<!-- Created with Serif DrawPlus 12,0,4,27 (May 24, 08:37:51) (http://www.serif.com) -->
<svg version="1.1" xmlns="http://www.w3.org/2000/svg" xmlns:xlink="http://www.w3.org/1999/xlink" width="816" height="1056">
	<g id="Layer_1">
		<path id="dp_path001" transform="matrix(1,0,0,1,24.54,979.76)" fill="white" stroke="black" stroke-width="13.3333" d="M 685.427,-94.1347 C 619.797,-19.3587 516.409,18.0827 375.261,18.0827 L 368.985,18.0827 C 248.897,18.0827 159.124,-11.7 99.5587,-71.1587 C 57.9693,-112.961 37.228,-161.889 37.228,-218.052 C 37.228,-249.643 45.7373,-282.935 62.8627,-317.929 L 203.692,-325.375 C 189.864,-291.551 182.951,-261.343 182.951,-234.964 C 182.951,-189.864 195.289,-153.7 219.967,-126.469 C 244.431,-98.176 278.787,-84.0293 322.929,-84.0293 C 428.339,-84.0293 480.989,-145.723 480.989,-269.213 C 480.989,-328.885 457.589,-370.688 410.788,-394.62 C 376.751,-411.639 326.439,-420.148 260.172,-420.148 L 239.537,-420.148 C 232.731,-420.148 219.967,-418.765 201.245,-416.105 L 202.416,-542.469 L 254.855,-537.151 C 321.44,-537.151 371.219,-547.043 404.299,-566.828 C 446.101,-592.355 466.949,-636.179 466.949,-698.403 C 466.949,-739.141 454.611,-772.328 429.827,-797.856 C 404.299,-822.639 371.113,-834.977 330.375,-834.977 C 292.083,-834.977 261.024,-822.639 237.091,-797.856 C 212.308,-773.072 199.969,-741.588 199.969,-703.296 C 199.969,-687.128 205.925,-661.068 217.732,-625.329 L 74.988,-653.516 C 68.9253,-677.343 65.9467,-696.488 65.9467,-710.848 C 65.9467,-785.943 99.984,-844.019 168.165,-884.969 C 225.177,-919.752 293.252,-937.089 372.389,-937.089 C 496.732,-937.089 589.909,-907.732 652.027,-849.124 C 697.977,-805.727 720.952,-754.139 720.952,-694.467 C 720.952,-646.815 707.337,-604.693 680.108,-568.104 C 652.027,-530.556 615.117,-502.795 569.168,-484.819 C 622.776,-468.013 665.323,-439.932 696.701,-400.683 C 730.739,-358.881 747.757,-310.803 747.757,-256.344 C 747.757,-195.821 727.016,-141.787 685.427,-94.1347 Z "/>
	</g>
</svg>