<?xml version="1.0" encoding="UTF-8" standalone="no"?>
<!-- Created with Serif DrawPlus 12,0,4,27 (May 24, 08:37:51) (http://www.serif.com) -->
<svg version="1.1" xmlns="http://www.w3.org/2000/svg" xmlns:xlink="http://www.w3.org/1999/xlink" width="816" height="1056">
	<g id="Layer_1">
		<path id="dp_path001" transform="matrix(1,0,0,1,34.556,950.906)" fill="white" stroke="black" stroke-width="13.3333" d="M 425.199,14.7147 C 420.328,15.5267 410.484,16.2373 395.769,17.048 L 372.632,18.2667 L 320.371,14.7147 C 216.355,-3.14533 139.027,-58.3507 88.592,-151.001 C 47.0867,-227.313 26.384,-323.212 26.384,-438.595 C 26.384,-554.585 47.0867,-650.381 88.592,-725.984 C 139.027,-817.823 216.659,-873.028 321.487,-891.7 C 325.648,-891.7 332.244,-892.004 341.173,-892.816 C 350.003,-893.628 356.497,-894.033 360.455,-894.033 L 373.851,-894.033 L 425.199,-890.483 C 623.388,-855.573 722.533,-700.005 722.533,-423.779 C 722.533,-313.267 700.208,-219.905 655.557,-143.593 C 603.6,-55.104 526.78,-2.33467 425.199,14.7147 Z M 373.851,-801.18 C 332.649,-801.18 304.743,-748.107 290.028,-641.857 C 282.721,-588.987 279.068,-520.285 279.068,-435.855 C 279.068,-342.493 281.909,-273.893 287.695,-230.156 C 301.292,-123.907 330.011,-70.7307 373.851,-70.7307 C 415.964,-70.7307 444.379,-123.907 458.992,-230.156 C 465.588,-277.241 468.835,-346.248 468.835,-437.072 L 468.835,-476.243 C 468.835,-510.34 468.023,-539.465 466.501,-563.719 C 455.947,-722.027 425.097,-801.18 373.851,-801.18 Z "/>
	</g>
</svg>